%TF.GenerationSoftware,KiCad,Pcbnew,7.0.8*%
%TF.CreationDate,2024-05-08T14:15:31+02:00*%
%TF.ProjectId,PaperBot,50617065-7242-46f7-942e-6b696361645f,rev?*%
%TF.SameCoordinates,Original*%
%TF.FileFunction,Legend,Bot*%
%TF.FilePolarity,Positive*%
%FSLAX46Y46*%
G04 Gerber Fmt 4.6, Leading zero omitted, Abs format (unit mm)*
G04 Created by KiCad (PCBNEW 7.0.8) date 2024-05-08 14:15:31*
%MOMM*%
%LPD*%
G01*
G04 APERTURE LIST*
%ADD10C,0.150000*%
%ADD11C,0.050000*%
%ADD12C,0.120000*%
%ADD13C,0.010000*%
G04 APERTURE END LIST*
D10*
X152757506Y-90599819D02*
X152757506Y-91314104D01*
X152757506Y-91314104D02*
X152805125Y-91456961D01*
X152805125Y-91456961D02*
X152900363Y-91552200D01*
X152900363Y-91552200D02*
X153043220Y-91599819D01*
X153043220Y-91599819D02*
X153138458Y-91599819D01*
X151805125Y-91599819D02*
X152281315Y-91599819D01*
X152281315Y-91599819D02*
X152281315Y-90599819D01*
X150900363Y-91504580D02*
X150947982Y-91552200D01*
X150947982Y-91552200D02*
X151090839Y-91599819D01*
X151090839Y-91599819D02*
X151186077Y-91599819D01*
X151186077Y-91599819D02*
X151328934Y-91552200D01*
X151328934Y-91552200D02*
X151424172Y-91456961D01*
X151424172Y-91456961D02*
X151471791Y-91361723D01*
X151471791Y-91361723D02*
X151519410Y-91171247D01*
X151519410Y-91171247D02*
X151519410Y-91028390D01*
X151519410Y-91028390D02*
X151471791Y-90837914D01*
X151471791Y-90837914D02*
X151424172Y-90742676D01*
X151424172Y-90742676D02*
X151328934Y-90647438D01*
X151328934Y-90647438D02*
X151186077Y-90599819D01*
X151186077Y-90599819D02*
X151090839Y-90599819D01*
X151090839Y-90599819D02*
X150947982Y-90647438D01*
X150947982Y-90647438D02*
X150900363Y-90695057D01*
X150186077Y-90599819D02*
X150186077Y-91314104D01*
X150186077Y-91314104D02*
X150233696Y-91456961D01*
X150233696Y-91456961D02*
X150328934Y-91552200D01*
X150328934Y-91552200D02*
X150471791Y-91599819D01*
X150471791Y-91599819D02*
X150567029Y-91599819D01*
X149233696Y-91599819D02*
X149709886Y-91599819D01*
X149709886Y-91599819D02*
X149709886Y-90599819D01*
X148328934Y-91504580D02*
X148376553Y-91552200D01*
X148376553Y-91552200D02*
X148519410Y-91599819D01*
X148519410Y-91599819D02*
X148614648Y-91599819D01*
X148614648Y-91599819D02*
X148757505Y-91552200D01*
X148757505Y-91552200D02*
X148852743Y-91456961D01*
X148852743Y-91456961D02*
X148900362Y-91361723D01*
X148900362Y-91361723D02*
X148947981Y-91171247D01*
X148947981Y-91171247D02*
X148947981Y-91028390D01*
X148947981Y-91028390D02*
X148900362Y-90837914D01*
X148900362Y-90837914D02*
X148852743Y-90742676D01*
X148852743Y-90742676D02*
X148757505Y-90647438D01*
X148757505Y-90647438D02*
X148614648Y-90599819D01*
X148614648Y-90599819D02*
X148519410Y-90599819D01*
X148519410Y-90599819D02*
X148376553Y-90647438D01*
X148376553Y-90647438D02*
X148328934Y-90695057D01*
X147614648Y-90599819D02*
X147614648Y-91314104D01*
X147614648Y-91314104D02*
X147662267Y-91456961D01*
X147662267Y-91456961D02*
X147757505Y-91552200D01*
X147757505Y-91552200D02*
X147900362Y-91599819D01*
X147900362Y-91599819D02*
X147995600Y-91599819D01*
X146662267Y-91599819D02*
X147138457Y-91599819D01*
X147138457Y-91599819D02*
X147138457Y-90599819D01*
X145757505Y-91504580D02*
X145805124Y-91552200D01*
X145805124Y-91552200D02*
X145947981Y-91599819D01*
X145947981Y-91599819D02*
X146043219Y-91599819D01*
X146043219Y-91599819D02*
X146186076Y-91552200D01*
X146186076Y-91552200D02*
X146281314Y-91456961D01*
X146281314Y-91456961D02*
X146328933Y-91361723D01*
X146328933Y-91361723D02*
X146376552Y-91171247D01*
X146376552Y-91171247D02*
X146376552Y-91028390D01*
X146376552Y-91028390D02*
X146328933Y-90837914D01*
X146328933Y-90837914D02*
X146281314Y-90742676D01*
X146281314Y-90742676D02*
X146186076Y-90647438D01*
X146186076Y-90647438D02*
X146043219Y-90599819D01*
X146043219Y-90599819D02*
X145947981Y-90599819D01*
X145947981Y-90599819D02*
X145805124Y-90647438D01*
X145805124Y-90647438D02*
X145757505Y-90695057D01*
X145043219Y-90599819D02*
X145043219Y-91314104D01*
X145043219Y-91314104D02*
X145090838Y-91456961D01*
X145090838Y-91456961D02*
X145186076Y-91552200D01*
X145186076Y-91552200D02*
X145328933Y-91599819D01*
X145328933Y-91599819D02*
X145424171Y-91599819D01*
X144090838Y-91599819D02*
X144567028Y-91599819D01*
X144567028Y-91599819D02*
X144567028Y-90599819D01*
X143186076Y-91504580D02*
X143233695Y-91552200D01*
X143233695Y-91552200D02*
X143376552Y-91599819D01*
X143376552Y-91599819D02*
X143471790Y-91599819D01*
X143471790Y-91599819D02*
X143614647Y-91552200D01*
X143614647Y-91552200D02*
X143709885Y-91456961D01*
X143709885Y-91456961D02*
X143757504Y-91361723D01*
X143757504Y-91361723D02*
X143805123Y-91171247D01*
X143805123Y-91171247D02*
X143805123Y-91028390D01*
X143805123Y-91028390D02*
X143757504Y-90837914D01*
X143757504Y-90837914D02*
X143709885Y-90742676D01*
X143709885Y-90742676D02*
X143614647Y-90647438D01*
X143614647Y-90647438D02*
X143471790Y-90599819D01*
X143471790Y-90599819D02*
X143376552Y-90599819D01*
X143376552Y-90599819D02*
X143233695Y-90647438D01*
X143233695Y-90647438D02*
X143186076Y-90695057D01*
X106906666Y-76108152D02*
X106906666Y-76774819D01*
X107144761Y-75727200D02*
X107382856Y-76441485D01*
X107382856Y-76441485D02*
X106763809Y-76441485D01*
X106478094Y-75774819D02*
X105811428Y-75774819D01*
X105811428Y-75774819D02*
X106239999Y-76774819D01*
X105001904Y-76108152D02*
X105001904Y-76774819D01*
X105430475Y-76108152D02*
X105430475Y-76631961D01*
X105430475Y-76631961D02*
X105382856Y-76727200D01*
X105382856Y-76727200D02*
X105287618Y-76774819D01*
X105287618Y-76774819D02*
X105144761Y-76774819D01*
X105144761Y-76774819D02*
X105049523Y-76727200D01*
X105049523Y-76727200D02*
X105001904Y-76679580D01*
X104192380Y-76251009D02*
X104525713Y-76251009D01*
X104525713Y-76774819D02*
X104525713Y-75774819D01*
X104525713Y-75774819D02*
X104049523Y-75774819D01*
X144891904Y-75732438D02*
X144987142Y-75684819D01*
X144987142Y-75684819D02*
X145129999Y-75684819D01*
X145129999Y-75684819D02*
X145272856Y-75732438D01*
X145272856Y-75732438D02*
X145368094Y-75827676D01*
X145368094Y-75827676D02*
X145415713Y-75922914D01*
X145415713Y-75922914D02*
X145463332Y-76113390D01*
X145463332Y-76113390D02*
X145463332Y-76256247D01*
X145463332Y-76256247D02*
X145415713Y-76446723D01*
X145415713Y-76446723D02*
X145368094Y-76541961D01*
X145368094Y-76541961D02*
X145272856Y-76637200D01*
X145272856Y-76637200D02*
X145129999Y-76684819D01*
X145129999Y-76684819D02*
X145034761Y-76684819D01*
X145034761Y-76684819D02*
X144891904Y-76637200D01*
X144891904Y-76637200D02*
X144844285Y-76589580D01*
X144844285Y-76589580D02*
X144844285Y-76256247D01*
X144844285Y-76256247D02*
X145034761Y-76256247D01*
X144415713Y-76684819D02*
X144415713Y-75684819D01*
X144415713Y-75684819D02*
X143844285Y-76684819D01*
X143844285Y-76684819D02*
X143844285Y-75684819D01*
X143368094Y-76684819D02*
X143368094Y-75684819D01*
X143368094Y-75684819D02*
X143129999Y-75684819D01*
X143129999Y-75684819D02*
X142987142Y-75732438D01*
X142987142Y-75732438D02*
X142891904Y-75827676D01*
X142891904Y-75827676D02*
X142844285Y-75922914D01*
X142844285Y-75922914D02*
X142796666Y-76113390D01*
X142796666Y-76113390D02*
X142796666Y-76256247D01*
X142796666Y-76256247D02*
X142844285Y-76446723D01*
X142844285Y-76446723D02*
X142891904Y-76541961D01*
X142891904Y-76541961D02*
X142987142Y-76637200D01*
X142987142Y-76637200D02*
X143129999Y-76684819D01*
X143129999Y-76684819D02*
X143368094Y-76684819D01*
X143799047Y-69530057D02*
X143894285Y-69482438D01*
X143894285Y-69482438D02*
X143989523Y-69387200D01*
X143989523Y-69387200D02*
X144132380Y-69244342D01*
X144132380Y-69244342D02*
X144227618Y-69196723D01*
X144227618Y-69196723D02*
X144322856Y-69196723D01*
X144275237Y-69434819D02*
X144370475Y-69387200D01*
X144370475Y-69387200D02*
X144465713Y-69291961D01*
X144465713Y-69291961D02*
X144513332Y-69101485D01*
X144513332Y-69101485D02*
X144513332Y-68768152D01*
X144513332Y-68768152D02*
X144465713Y-68577676D01*
X144465713Y-68577676D02*
X144370475Y-68482438D01*
X144370475Y-68482438D02*
X144275237Y-68434819D01*
X144275237Y-68434819D02*
X144084761Y-68434819D01*
X144084761Y-68434819D02*
X143989523Y-68482438D01*
X143989523Y-68482438D02*
X143894285Y-68577676D01*
X143894285Y-68577676D02*
X143846666Y-68768152D01*
X143846666Y-68768152D02*
X143846666Y-69101485D01*
X143846666Y-69101485D02*
X143894285Y-69291961D01*
X143894285Y-69291961D02*
X143989523Y-69387200D01*
X143989523Y-69387200D02*
X144084761Y-69434819D01*
X144084761Y-69434819D02*
X144275237Y-69434819D01*
X129296666Y-62064819D02*
X129296666Y-61064819D01*
X129296666Y-61064819D02*
X128725238Y-62064819D01*
X128725238Y-62064819D02*
X128725238Y-61064819D01*
X128249047Y-61541009D02*
X127915714Y-61541009D01*
X127772857Y-62064819D02*
X128249047Y-62064819D01*
X128249047Y-62064819D02*
X128249047Y-61064819D01*
X128249047Y-61064819D02*
X127772857Y-61064819D01*
X126868095Y-61064819D02*
X127344285Y-61064819D01*
X127344285Y-61064819D02*
X127391904Y-61541009D01*
X127391904Y-61541009D02*
X127344285Y-61493390D01*
X127344285Y-61493390D02*
X127249047Y-61445771D01*
X127249047Y-61445771D02*
X127010952Y-61445771D01*
X127010952Y-61445771D02*
X126915714Y-61493390D01*
X126915714Y-61493390D02*
X126868095Y-61541009D01*
X126868095Y-61541009D02*
X126820476Y-61636247D01*
X126820476Y-61636247D02*
X126820476Y-61874342D01*
X126820476Y-61874342D02*
X126868095Y-61969580D01*
X126868095Y-61969580D02*
X126915714Y-62017200D01*
X126915714Y-62017200D02*
X127010952Y-62064819D01*
X127010952Y-62064819D02*
X127249047Y-62064819D01*
X127249047Y-62064819D02*
X127344285Y-62017200D01*
X127344285Y-62017200D02*
X127391904Y-61969580D01*
X125915714Y-61064819D02*
X126391904Y-61064819D01*
X126391904Y-61064819D02*
X126439523Y-61541009D01*
X126439523Y-61541009D02*
X126391904Y-61493390D01*
X126391904Y-61493390D02*
X126296666Y-61445771D01*
X126296666Y-61445771D02*
X126058571Y-61445771D01*
X126058571Y-61445771D02*
X125963333Y-61493390D01*
X125963333Y-61493390D02*
X125915714Y-61541009D01*
X125915714Y-61541009D02*
X125868095Y-61636247D01*
X125868095Y-61636247D02*
X125868095Y-61874342D01*
X125868095Y-61874342D02*
X125915714Y-61969580D01*
X125915714Y-61969580D02*
X125963333Y-62017200D01*
X125963333Y-62017200D02*
X126058571Y-62064819D01*
X126058571Y-62064819D02*
X126296666Y-62064819D01*
X126296666Y-62064819D02*
X126391904Y-62017200D01*
X126391904Y-62017200D02*
X126439523Y-61969580D01*
X124963333Y-61064819D02*
X125439523Y-61064819D01*
X125439523Y-61064819D02*
X125487142Y-61541009D01*
X125487142Y-61541009D02*
X125439523Y-61493390D01*
X125439523Y-61493390D02*
X125344285Y-61445771D01*
X125344285Y-61445771D02*
X125106190Y-61445771D01*
X125106190Y-61445771D02*
X125010952Y-61493390D01*
X125010952Y-61493390D02*
X124963333Y-61541009D01*
X124963333Y-61541009D02*
X124915714Y-61636247D01*
X124915714Y-61636247D02*
X124915714Y-61874342D01*
X124915714Y-61874342D02*
X124963333Y-61969580D01*
X124963333Y-61969580D02*
X125010952Y-62017200D01*
X125010952Y-62017200D02*
X125106190Y-62064819D01*
X125106190Y-62064819D02*
X125344285Y-62064819D01*
X125344285Y-62064819D02*
X125439523Y-62017200D01*
X125439523Y-62017200D02*
X125487142Y-61969580D01*
X152251904Y-78077200D02*
X152109047Y-78124819D01*
X152109047Y-78124819D02*
X151870952Y-78124819D01*
X151870952Y-78124819D02*
X151775714Y-78077200D01*
X151775714Y-78077200D02*
X151728095Y-78029580D01*
X151728095Y-78029580D02*
X151680476Y-77934342D01*
X151680476Y-77934342D02*
X151680476Y-77839104D01*
X151680476Y-77839104D02*
X151728095Y-77743866D01*
X151728095Y-77743866D02*
X151775714Y-77696247D01*
X151775714Y-77696247D02*
X151870952Y-77648628D01*
X151870952Y-77648628D02*
X152061428Y-77601009D01*
X152061428Y-77601009D02*
X152156666Y-77553390D01*
X152156666Y-77553390D02*
X152204285Y-77505771D01*
X152204285Y-77505771D02*
X152251904Y-77410533D01*
X152251904Y-77410533D02*
X152251904Y-77315295D01*
X152251904Y-77315295D02*
X152204285Y-77220057D01*
X152204285Y-77220057D02*
X152156666Y-77172438D01*
X152156666Y-77172438D02*
X152061428Y-77124819D01*
X152061428Y-77124819D02*
X151823333Y-77124819D01*
X151823333Y-77124819D02*
X151680476Y-77172438D01*
X150728095Y-78124819D02*
X151299523Y-78124819D01*
X151013809Y-78124819D02*
X151013809Y-77124819D01*
X151013809Y-77124819D02*
X151109047Y-77267676D01*
X151109047Y-77267676D02*
X151204285Y-77362914D01*
X151204285Y-77362914D02*
X151299523Y-77410533D01*
X128188095Y-45634819D02*
X128664285Y-45634819D01*
X128664285Y-45634819D02*
X128711904Y-46111009D01*
X128711904Y-46111009D02*
X128664285Y-46063390D01*
X128664285Y-46063390D02*
X128569047Y-46015771D01*
X128569047Y-46015771D02*
X128330952Y-46015771D01*
X128330952Y-46015771D02*
X128235714Y-46063390D01*
X128235714Y-46063390D02*
X128188095Y-46111009D01*
X128188095Y-46111009D02*
X128140476Y-46206247D01*
X128140476Y-46206247D02*
X128140476Y-46444342D01*
X128140476Y-46444342D02*
X128188095Y-46539580D01*
X128188095Y-46539580D02*
X128235714Y-46587200D01*
X128235714Y-46587200D02*
X128330952Y-46634819D01*
X128330952Y-46634819D02*
X128569047Y-46634819D01*
X128569047Y-46634819D02*
X128664285Y-46587200D01*
X128664285Y-46587200D02*
X128711904Y-46539580D01*
X127283333Y-45634819D02*
X127473809Y-45634819D01*
X127473809Y-45634819D02*
X127569047Y-45682438D01*
X127569047Y-45682438D02*
X127616666Y-45730057D01*
X127616666Y-45730057D02*
X127711904Y-45872914D01*
X127711904Y-45872914D02*
X127759523Y-46063390D01*
X127759523Y-46063390D02*
X127759523Y-46444342D01*
X127759523Y-46444342D02*
X127711904Y-46539580D01*
X127711904Y-46539580D02*
X127664285Y-46587200D01*
X127664285Y-46587200D02*
X127569047Y-46634819D01*
X127569047Y-46634819D02*
X127378571Y-46634819D01*
X127378571Y-46634819D02*
X127283333Y-46587200D01*
X127283333Y-46587200D02*
X127235714Y-46539580D01*
X127235714Y-46539580D02*
X127188095Y-46444342D01*
X127188095Y-46444342D02*
X127188095Y-46206247D01*
X127188095Y-46206247D02*
X127235714Y-46111009D01*
X127235714Y-46111009D02*
X127283333Y-46063390D01*
X127283333Y-46063390D02*
X127378571Y-46015771D01*
X127378571Y-46015771D02*
X127569047Y-46015771D01*
X127569047Y-46015771D02*
X127664285Y-46063390D01*
X127664285Y-46063390D02*
X127711904Y-46111009D01*
X127711904Y-46111009D02*
X127759523Y-46206247D01*
X126759523Y-46634819D02*
X126759523Y-45634819D01*
X126188095Y-46634819D02*
X126616666Y-46063390D01*
X126188095Y-45634819D02*
X126759523Y-46206247D01*
D11*
X127715714Y-89290019D02*
X127715714Y-90099542D01*
X127715714Y-90099542D02*
X127672857Y-90194780D01*
X127672857Y-90194780D02*
X127630000Y-90242400D01*
X127630000Y-90242400D02*
X127544285Y-90290019D01*
X127544285Y-90290019D02*
X127372857Y-90290019D01*
X127372857Y-90290019D02*
X127287142Y-90242400D01*
X127287142Y-90242400D02*
X127244285Y-90194780D01*
X127244285Y-90194780D02*
X127201428Y-90099542D01*
X127201428Y-90099542D02*
X127201428Y-89290019D01*
X126815714Y-89385257D02*
X126772857Y-89337638D01*
X126772857Y-89337638D02*
X126687143Y-89290019D01*
X126687143Y-89290019D02*
X126472857Y-89290019D01*
X126472857Y-89290019D02*
X126387143Y-89337638D01*
X126387143Y-89337638D02*
X126344285Y-89385257D01*
X126344285Y-89385257D02*
X126301428Y-89480495D01*
X126301428Y-89480495D02*
X126301428Y-89575733D01*
X126301428Y-89575733D02*
X126344285Y-89718590D01*
X126344285Y-89718590D02*
X126858571Y-90290019D01*
X126858571Y-90290019D02*
X126301428Y-90290019D01*
X135808570Y-85646209D02*
X135679998Y-85693828D01*
X135679998Y-85693828D02*
X135637141Y-85741447D01*
X135637141Y-85741447D02*
X135594284Y-85836685D01*
X135594284Y-85836685D02*
X135594284Y-85979542D01*
X135594284Y-85979542D02*
X135637141Y-86074780D01*
X135637141Y-86074780D02*
X135679998Y-86122400D01*
X135679998Y-86122400D02*
X135765713Y-86170019D01*
X135765713Y-86170019D02*
X136108570Y-86170019D01*
X136108570Y-86170019D02*
X136108570Y-85170019D01*
X136108570Y-85170019D02*
X135808570Y-85170019D01*
X135808570Y-85170019D02*
X135722856Y-85217638D01*
X135722856Y-85217638D02*
X135679998Y-85265257D01*
X135679998Y-85265257D02*
X135637141Y-85360495D01*
X135637141Y-85360495D02*
X135637141Y-85455733D01*
X135637141Y-85455733D02*
X135679998Y-85550971D01*
X135679998Y-85550971D02*
X135722856Y-85598590D01*
X135722856Y-85598590D02*
X135808570Y-85646209D01*
X135808570Y-85646209D02*
X136108570Y-85646209D01*
X135251427Y-85884304D02*
X134822856Y-85884304D01*
X135337141Y-86170019D02*
X135037141Y-85170019D01*
X135037141Y-85170019D02*
X134737141Y-86170019D01*
X134565712Y-85170019D02*
X134051427Y-85170019D01*
X134308569Y-86170019D02*
X134308569Y-85170019D01*
X133965713Y-86265257D02*
X133279998Y-86265257D01*
X133065713Y-86170019D02*
X133065713Y-85170019D01*
X133065713Y-85646209D02*
X132551427Y-85646209D01*
X132551427Y-86170019D02*
X132551427Y-85170019D01*
X131694284Y-86170019D02*
X132122856Y-86170019D01*
X132122856Y-86170019D02*
X132122856Y-85170019D01*
X131394285Y-86170019D02*
X131394285Y-85170019D01*
X131394285Y-85170019D02*
X131179999Y-85170019D01*
X131179999Y-85170019D02*
X131051428Y-85217638D01*
X131051428Y-85217638D02*
X130965713Y-85312876D01*
X130965713Y-85312876D02*
X130922856Y-85408114D01*
X130922856Y-85408114D02*
X130879999Y-85598590D01*
X130879999Y-85598590D02*
X130879999Y-85741447D01*
X130879999Y-85741447D02*
X130922856Y-85931923D01*
X130922856Y-85931923D02*
X130965713Y-86027161D01*
X130965713Y-86027161D02*
X131051428Y-86122400D01*
X131051428Y-86122400D02*
X131179999Y-86170019D01*
X131179999Y-86170019D02*
X131394285Y-86170019D01*
X130708571Y-86265257D02*
X130022856Y-86265257D01*
X129851428Y-86122400D02*
X129722857Y-86170019D01*
X129722857Y-86170019D02*
X129508571Y-86170019D01*
X129508571Y-86170019D02*
X129422857Y-86122400D01*
X129422857Y-86122400D02*
X129379999Y-86074780D01*
X129379999Y-86074780D02*
X129337142Y-85979542D01*
X129337142Y-85979542D02*
X129337142Y-85884304D01*
X129337142Y-85884304D02*
X129379999Y-85789066D01*
X129379999Y-85789066D02*
X129422857Y-85741447D01*
X129422857Y-85741447D02*
X129508571Y-85693828D01*
X129508571Y-85693828D02*
X129679999Y-85646209D01*
X129679999Y-85646209D02*
X129765714Y-85598590D01*
X129765714Y-85598590D02*
X129808571Y-85550971D01*
X129808571Y-85550971D02*
X129851428Y-85455733D01*
X129851428Y-85455733D02*
X129851428Y-85360495D01*
X129851428Y-85360495D02*
X129808571Y-85265257D01*
X129808571Y-85265257D02*
X129765714Y-85217638D01*
X129765714Y-85217638D02*
X129679999Y-85170019D01*
X129679999Y-85170019D02*
X129465714Y-85170019D01*
X129465714Y-85170019D02*
X129337142Y-85217638D01*
X128951428Y-86170019D02*
X128951428Y-85170019D01*
X128951428Y-85170019D02*
X128651428Y-85884304D01*
X128651428Y-85884304D02*
X128351428Y-85170019D01*
X128351428Y-85170019D02*
X128351428Y-86170019D01*
X127922857Y-86170019D02*
X127922857Y-85170019D01*
X127922857Y-85170019D02*
X127708571Y-85170019D01*
X127708571Y-85170019D02*
X127580000Y-85217638D01*
X127580000Y-85217638D02*
X127494285Y-85312876D01*
X127494285Y-85312876D02*
X127451428Y-85408114D01*
X127451428Y-85408114D02*
X127408571Y-85598590D01*
X127408571Y-85598590D02*
X127408571Y-85741447D01*
X127408571Y-85741447D02*
X127451428Y-85931923D01*
X127451428Y-85931923D02*
X127494285Y-86027161D01*
X127494285Y-86027161D02*
X127580000Y-86122400D01*
X127580000Y-86122400D02*
X127708571Y-86170019D01*
X127708571Y-86170019D02*
X127922857Y-86170019D01*
D10*
X128609523Y-50644819D02*
X127990476Y-50644819D01*
X127990476Y-50644819D02*
X128323809Y-51025771D01*
X128323809Y-51025771D02*
X128180952Y-51025771D01*
X128180952Y-51025771D02*
X128085714Y-51073390D01*
X128085714Y-51073390D02*
X128038095Y-51121009D01*
X128038095Y-51121009D02*
X127990476Y-51216247D01*
X127990476Y-51216247D02*
X127990476Y-51454342D01*
X127990476Y-51454342D02*
X128038095Y-51549580D01*
X128038095Y-51549580D02*
X128085714Y-51597200D01*
X128085714Y-51597200D02*
X128180952Y-51644819D01*
X128180952Y-51644819D02*
X128466666Y-51644819D01*
X128466666Y-51644819D02*
X128561904Y-51597200D01*
X128561904Y-51597200D02*
X128609523Y-51549580D01*
X127657142Y-50644819D02*
X127038095Y-50644819D01*
X127038095Y-50644819D02*
X127371428Y-51025771D01*
X127371428Y-51025771D02*
X127228571Y-51025771D01*
X127228571Y-51025771D02*
X127133333Y-51073390D01*
X127133333Y-51073390D02*
X127085714Y-51121009D01*
X127085714Y-51121009D02*
X127038095Y-51216247D01*
X127038095Y-51216247D02*
X127038095Y-51454342D01*
X127038095Y-51454342D02*
X127085714Y-51549580D01*
X127085714Y-51549580D02*
X127133333Y-51597200D01*
X127133333Y-51597200D02*
X127228571Y-51644819D01*
X127228571Y-51644819D02*
X127514285Y-51644819D01*
X127514285Y-51644819D02*
X127609523Y-51597200D01*
X127609523Y-51597200D02*
X127657142Y-51549580D01*
X126609523Y-51644819D02*
X126609523Y-50644819D01*
X126038095Y-51644819D02*
X126466666Y-51073390D01*
X126038095Y-50644819D02*
X126609523Y-51216247D01*
X128175714Y-56288152D02*
X128175714Y-56954819D01*
X128413809Y-55907200D02*
X128651904Y-56621485D01*
X128651904Y-56621485D02*
X128032857Y-56621485D01*
X127747142Y-55954819D02*
X127080476Y-55954819D01*
X127080476Y-55954819D02*
X127509047Y-56954819D01*
X126128095Y-56954819D02*
X126461428Y-56478628D01*
X126699523Y-56954819D02*
X126699523Y-55954819D01*
X126699523Y-55954819D02*
X126318571Y-55954819D01*
X126318571Y-55954819D02*
X126223333Y-56002438D01*
X126223333Y-56002438D02*
X126175714Y-56050057D01*
X126175714Y-56050057D02*
X126128095Y-56145295D01*
X126128095Y-56145295D02*
X126128095Y-56288152D01*
X126128095Y-56288152D02*
X126175714Y-56383390D01*
X126175714Y-56383390D02*
X126223333Y-56431009D01*
X126223333Y-56431009D02*
X126318571Y-56478628D01*
X126318571Y-56478628D02*
X126699523Y-56478628D01*
D11*
%TO.C,G\u002A\u002A\u002A*%
X137395000Y-49710000D02*
X137970000Y-50185000D01*
X137970000Y-50185000D02*
X138395000Y-49860000D01*
X138395000Y-49860000D02*
X137395000Y-49710000D01*
D12*
X138720000Y-51298605D02*
X139620000Y-51285000D01*
X139119999Y-52680050D02*
X138719999Y-52680050D01*
X139120000Y-51685000D02*
X138870000Y-51685000D01*
X139120000Y-51735000D02*
X139120000Y-52185000D01*
X139120000Y-52185000D02*
X138820000Y-52185000D01*
X139120000Y-52685000D02*
X139120000Y-53185000D01*
X139120000Y-53185000D02*
X138670000Y-53185000D01*
D11*
X139345000Y-48985000D02*
X139695000Y-47810000D01*
D12*
X139620000Y-51285000D02*
X139670000Y-53735000D01*
X139670000Y-53735000D02*
X138470000Y-53735000D01*
D11*
X139695000Y-47810000D02*
X141495000Y-47860000D01*
D12*
X139945000Y-53735000D02*
X140720000Y-51285000D01*
X140345000Y-53735000D02*
X139945000Y-53735000D01*
X140595000Y-53135000D02*
X140345000Y-53735000D01*
X140670000Y-52735000D02*
X140895000Y-51985000D01*
X140720000Y-51285000D02*
X141045000Y-51285000D01*
X140895000Y-51985000D02*
X141170000Y-52735000D01*
D11*
X140920000Y-49910000D02*
X142595000Y-50010000D01*
D12*
X141045000Y-51285000D02*
X141945000Y-53735000D01*
X141170000Y-52735000D02*
X140670000Y-52735000D01*
X141195000Y-53135000D02*
X140595000Y-53135000D01*
X141445000Y-53735000D02*
X141195000Y-53135000D01*
X141445000Y-53735000D02*
X141945000Y-53735000D01*
D11*
X141495000Y-47860000D02*
X139345000Y-48985000D01*
X141620000Y-49335000D02*
X140920000Y-49910000D01*
D12*
X142120000Y-53260000D02*
X142120000Y-53710000D01*
X142120000Y-53710000D02*
X143370000Y-53710000D01*
D11*
X142620000Y-50010000D02*
X141620000Y-49335000D01*
X142770000Y-49560000D02*
X144395000Y-50685000D01*
X142820000Y-47235000D02*
X143945000Y-48460000D01*
X142845000Y-46835000D02*
X142770000Y-49560000D01*
D12*
X142870000Y-53260000D02*
X142120000Y-53260000D01*
X142895000Y-51260000D02*
X142870000Y-53260000D01*
X143345000Y-51260000D02*
X142895000Y-51260000D01*
X143370000Y-53710000D02*
X143345000Y-51260000D01*
X143545000Y-53710000D02*
X144245000Y-52760000D01*
X143645000Y-53710000D02*
X143545000Y-53710000D01*
D11*
X143945000Y-48460000D02*
X143370000Y-49960000D01*
D12*
X144045000Y-53710000D02*
X143645000Y-53710000D01*
X144286269Y-51254594D02*
X145395000Y-51260000D01*
D11*
X144395000Y-50685000D02*
X146070000Y-50460000D01*
D12*
X144445000Y-51710000D02*
X144895000Y-51710000D01*
X144795000Y-52760000D02*
X144045000Y-53710000D01*
X144895000Y-51710000D02*
X144895000Y-52260000D01*
X144895000Y-52260000D02*
X144395000Y-52260000D01*
X144945000Y-52760000D02*
X144795000Y-52760000D01*
X144945000Y-53710000D02*
X144945000Y-52760000D01*
X145395000Y-51260000D02*
X145395000Y-53710000D01*
X145395000Y-53710000D02*
X144945000Y-53710000D01*
D11*
X145545000Y-50910000D02*
X146520000Y-51260000D01*
D12*
X145845000Y-51260000D02*
X147145000Y-51260000D01*
X145845000Y-51760000D02*
X145845000Y-51260000D01*
X145845000Y-53210000D02*
X146695000Y-53210000D01*
X145845000Y-53710000D02*
X145845000Y-53210000D01*
D11*
X145945000Y-50635000D02*
X145545000Y-50910000D01*
D12*
X146045000Y-52210000D02*
X146695000Y-52210000D01*
X146045000Y-52660000D02*
X146045000Y-52210000D01*
D11*
X146070000Y-50460000D02*
X147895000Y-51360000D01*
X146320000Y-48460000D02*
X142845000Y-46835000D01*
X146320000Y-48460000D02*
X148645000Y-49610000D01*
D12*
X146695000Y-51760000D02*
X145845000Y-51760000D01*
X146695000Y-52210000D02*
X146695000Y-51760000D01*
X146695000Y-52660000D02*
X146045000Y-52660000D01*
X146695000Y-53210000D02*
X146695000Y-52660000D01*
D11*
X146720000Y-51235000D02*
X145945000Y-50635000D01*
X147070000Y-47035000D02*
X146320000Y-48460000D01*
X147070000Y-47035000D02*
X149270000Y-48210000D01*
D12*
X147095000Y-53710000D02*
X145845000Y-53710000D01*
X147145000Y-51260000D02*
X147195000Y-53710000D01*
X147195000Y-53710000D02*
X147095000Y-53710000D01*
X148295000Y-51273605D02*
X149195000Y-51260000D01*
D11*
X148645000Y-49610000D02*
X150120000Y-51335000D01*
X148645000Y-49610000D02*
X154295000Y-52460000D01*
D12*
X148694999Y-52655050D02*
X148294999Y-52655050D01*
X148695000Y-51660000D02*
X148445000Y-51660000D01*
X148695000Y-51710000D02*
X148695000Y-52160000D01*
X148695000Y-52160000D02*
X148395000Y-52160000D01*
X148695000Y-52660000D02*
X148695000Y-53160000D01*
X148695000Y-53160000D02*
X148245000Y-53160000D01*
X149195000Y-51260000D02*
X149245000Y-53710000D01*
X149245000Y-53710000D02*
X148045000Y-53710000D01*
D11*
X149270000Y-48210000D02*
X147695000Y-49110000D01*
X149370000Y-48035000D02*
X148645000Y-49610000D01*
D12*
X149645000Y-52110000D02*
X149645000Y-52810000D01*
D11*
X149945000Y-51435000D02*
X142845000Y-46835000D01*
D12*
X150145000Y-52110000D02*
X150145000Y-52760000D01*
D11*
X150395000Y-48285000D02*
X148645000Y-49610000D01*
X150395000Y-48285000D02*
X149370000Y-48035000D01*
X150470000Y-52360000D02*
X150845000Y-52535000D01*
X150795000Y-51960000D02*
X150470000Y-52360000D01*
D12*
X150845000Y-52110000D02*
X150845000Y-52810000D01*
D11*
X151345000Y-52710000D02*
X151895000Y-52985000D01*
D12*
X151345000Y-52810000D02*
X151345000Y-52110000D01*
D11*
X151395000Y-51985000D02*
X151620000Y-52610000D01*
X151620000Y-52610000D02*
X154295000Y-52460000D01*
X151895000Y-52985000D02*
X151320000Y-52185000D01*
X152970000Y-52935000D02*
X152145000Y-52585000D01*
X154295000Y-52460000D02*
X150395000Y-48285000D01*
X154295000Y-52460000D02*
X151395000Y-51985000D01*
X154295000Y-52460000D02*
X152970000Y-52935000D01*
D12*
X138720000Y-51298606D02*
G75*
G03*
X138270001Y-52384999I0J-636394D01*
G01*
X138293744Y-52426064D02*
G75*
G03*
X138470001Y-53734998I426255J-608936D01*
G01*
X138719999Y-52680051D02*
G75*
G03*
X138670001Y-53184998I1J-254949D01*
G01*
X138880634Y-51692464D02*
G75*
G03*
X138820000Y-52185000I-60634J-242536D01*
G01*
X144286269Y-51254595D02*
G75*
G03*
X144270001Y-52709998I233731J-730405D01*
G01*
X144395001Y-51710002D02*
G75*
G03*
X144395001Y-52259998I124999J-274998D01*
G01*
X148295000Y-51273606D02*
G75*
G03*
X147845001Y-52359999I0J-636394D01*
G01*
X147868744Y-52401064D02*
G75*
G03*
X148045001Y-53709998I426255J-608936D01*
G01*
X148294999Y-52655051D02*
G75*
G03*
X148245001Y-53159998I1J-254949D01*
G01*
X148455634Y-51667464D02*
G75*
G03*
X148395000Y-52160000I-60634J-242536D01*
G01*
X151345000Y-52110000D02*
G75*
G03*
X149645000Y-52110000I-850000J0D01*
G01*
X150845000Y-52110000D02*
G75*
G03*
X150145000Y-52110000I-350000J0D01*
G01*
X150145000Y-52810000D02*
G75*
G03*
X150845000Y-52810000I350000J0D01*
G01*
X149645000Y-52810000D02*
G75*
G03*
X151345000Y-52810000I850000J0D01*
G01*
D13*
X159842361Y-106705226D02*
X159778542Y-106769045D01*
X159714723Y-106705226D01*
X159778542Y-106641407D01*
X159842361Y-106705226D01*
G36*
X159842361Y-106705226D02*
G01*
X159778542Y-106769045D01*
X159714723Y-106705226D01*
X159778542Y-106641407D01*
X159842361Y-106705226D01*
G37*
D12*
%TO.C,C1*%
X109240241Y-70081000D02*
X108610241Y-70081000D01*
X108925241Y-69766000D02*
X108925241Y-70396000D01*
X105740000Y-68690000D02*
X105740000Y-75150000D01*
X105700000Y-68690000D02*
X105700000Y-75150000D01*
X105660000Y-68690000D02*
X105660000Y-75150000D01*
X105620000Y-68692000D02*
X105620000Y-75148000D01*
X105580000Y-68693000D02*
X105580000Y-75147000D01*
X105540000Y-68696000D02*
X105540000Y-75144000D01*
X105500000Y-72960000D02*
X105500000Y-75142000D01*
X105500000Y-68698000D02*
X105500000Y-70880000D01*
X105460000Y-72960000D02*
X105460000Y-75138000D01*
X105460000Y-68702000D02*
X105460000Y-70880000D01*
X105420000Y-72960000D02*
X105420000Y-75135000D01*
X105420000Y-68705000D02*
X105420000Y-70880000D01*
X105380000Y-72960000D02*
X105380000Y-75131000D01*
X105380000Y-68709000D02*
X105380000Y-70880000D01*
X105340000Y-72960000D02*
X105340000Y-75126000D01*
X105340000Y-68714000D02*
X105340000Y-70880000D01*
X105300000Y-72960000D02*
X105300000Y-75121000D01*
X105300000Y-68719000D02*
X105300000Y-70880000D01*
X105260000Y-72960000D02*
X105260000Y-75115000D01*
X105260000Y-68725000D02*
X105260000Y-70880000D01*
X105220000Y-72960000D02*
X105220000Y-75109000D01*
X105220000Y-68731000D02*
X105220000Y-70880000D01*
X105180000Y-72960000D02*
X105180000Y-75102000D01*
X105180000Y-68738000D02*
X105180000Y-70880000D01*
X105140000Y-72960000D02*
X105140000Y-75095000D01*
X105140000Y-68745000D02*
X105140000Y-70880000D01*
X105100000Y-72960000D02*
X105100000Y-75087000D01*
X105100000Y-68753000D02*
X105100000Y-70880000D01*
X105060000Y-72960000D02*
X105060000Y-75079000D01*
X105060000Y-68761000D02*
X105060000Y-70880000D01*
X105019000Y-72960000D02*
X105019000Y-75070000D01*
X105019000Y-68770000D02*
X105019000Y-70880000D01*
X104979000Y-72960000D02*
X104979000Y-75061000D01*
X104979000Y-68779000D02*
X104979000Y-70880000D01*
X104939000Y-72960000D02*
X104939000Y-75051000D01*
X104939000Y-68789000D02*
X104939000Y-70880000D01*
X104899000Y-72960000D02*
X104899000Y-75041000D01*
X104899000Y-68799000D02*
X104899000Y-70880000D01*
X104859000Y-72960000D02*
X104859000Y-75030000D01*
X104859000Y-68810000D02*
X104859000Y-70880000D01*
X104819000Y-72960000D02*
X104819000Y-75018000D01*
X104819000Y-68822000D02*
X104819000Y-70880000D01*
X104779000Y-72960000D02*
X104779000Y-75006000D01*
X104779000Y-68834000D02*
X104779000Y-70880000D01*
X104739000Y-72960000D02*
X104739000Y-74994000D01*
X104739000Y-68846000D02*
X104739000Y-70880000D01*
X104699000Y-72960000D02*
X104699000Y-74981000D01*
X104699000Y-68859000D02*
X104699000Y-70880000D01*
X104659000Y-72960000D02*
X104659000Y-74967000D01*
X104659000Y-68873000D02*
X104659000Y-70880000D01*
X104619000Y-72960000D02*
X104619000Y-74953000D01*
X104619000Y-68887000D02*
X104619000Y-70880000D01*
X104579000Y-72960000D02*
X104579000Y-74938000D01*
X104579000Y-68902000D02*
X104579000Y-70880000D01*
X104539000Y-72960000D02*
X104539000Y-74922000D01*
X104539000Y-68918000D02*
X104539000Y-70880000D01*
X104499000Y-72960000D02*
X104499000Y-74906000D01*
X104499000Y-68934000D02*
X104499000Y-70880000D01*
X104459000Y-72960000D02*
X104459000Y-74890000D01*
X104459000Y-68950000D02*
X104459000Y-70880000D01*
X104419000Y-72960000D02*
X104419000Y-74872000D01*
X104419000Y-68968000D02*
X104419000Y-70880000D01*
X104379000Y-72960000D02*
X104379000Y-74854000D01*
X104379000Y-68986000D02*
X104379000Y-70880000D01*
X104339000Y-72960000D02*
X104339000Y-74836000D01*
X104339000Y-69004000D02*
X104339000Y-70880000D01*
X104299000Y-72960000D02*
X104299000Y-74816000D01*
X104299000Y-69024000D02*
X104299000Y-70880000D01*
X104259000Y-72960000D02*
X104259000Y-74796000D01*
X104259000Y-69044000D02*
X104259000Y-70880000D01*
X104219000Y-72960000D02*
X104219000Y-74776000D01*
X104219000Y-69064000D02*
X104219000Y-70880000D01*
X104179000Y-72960000D02*
X104179000Y-74754000D01*
X104179000Y-69086000D02*
X104179000Y-70880000D01*
X104139000Y-72960000D02*
X104139000Y-74732000D01*
X104139000Y-69108000D02*
X104139000Y-70880000D01*
X104099000Y-72960000D02*
X104099000Y-74710000D01*
X104099000Y-69130000D02*
X104099000Y-70880000D01*
X104059000Y-72960000D02*
X104059000Y-74686000D01*
X104059000Y-69154000D02*
X104059000Y-70880000D01*
X104019000Y-72960000D02*
X104019000Y-74662000D01*
X104019000Y-69178000D02*
X104019000Y-70880000D01*
X103979000Y-72960000D02*
X103979000Y-74636000D01*
X103979000Y-69204000D02*
X103979000Y-70880000D01*
X103939000Y-72960000D02*
X103939000Y-74610000D01*
X103939000Y-69230000D02*
X103939000Y-70880000D01*
X103899000Y-72960000D02*
X103899000Y-74584000D01*
X103899000Y-69256000D02*
X103899000Y-70880000D01*
X103859000Y-72960000D02*
X103859000Y-74556000D01*
X103859000Y-69284000D02*
X103859000Y-70880000D01*
X103819000Y-72960000D02*
X103819000Y-74527000D01*
X103819000Y-69313000D02*
X103819000Y-70880000D01*
X103779000Y-72960000D02*
X103779000Y-74498000D01*
X103779000Y-69342000D02*
X103779000Y-70880000D01*
X103739000Y-72960000D02*
X103739000Y-74468000D01*
X103739000Y-69372000D02*
X103739000Y-70880000D01*
X103699000Y-72960000D02*
X103699000Y-74436000D01*
X103699000Y-69404000D02*
X103699000Y-70880000D01*
X103659000Y-72960000D02*
X103659000Y-74404000D01*
X103659000Y-69436000D02*
X103659000Y-70880000D01*
X103619000Y-72960000D02*
X103619000Y-74370000D01*
X103619000Y-69470000D02*
X103619000Y-70880000D01*
X103579000Y-72960000D02*
X103579000Y-74336000D01*
X103579000Y-69504000D02*
X103579000Y-70880000D01*
X103539000Y-72960000D02*
X103539000Y-74300000D01*
X103539000Y-69540000D02*
X103539000Y-70880000D01*
X103499000Y-72960000D02*
X103499000Y-74263000D01*
X103499000Y-69577000D02*
X103499000Y-70880000D01*
X103459000Y-72960000D02*
X103459000Y-74225000D01*
X103459000Y-69615000D02*
X103459000Y-70880000D01*
X103419000Y-69655000D02*
X103419000Y-74185000D01*
X103379000Y-69696000D02*
X103379000Y-74144000D01*
X103339000Y-69738000D02*
X103339000Y-74102000D01*
X103299000Y-69783000D02*
X103299000Y-74057000D01*
X103259000Y-69828000D02*
X103259000Y-74012000D01*
X103219000Y-69876000D02*
X103219000Y-73964000D01*
X103179000Y-69925000D02*
X103179000Y-73915000D01*
X103139000Y-69976000D02*
X103139000Y-73864000D01*
X103099000Y-70030000D02*
X103099000Y-73810000D01*
X103059000Y-70086000D02*
X103059000Y-73754000D01*
X103019000Y-70144000D02*
X103019000Y-73696000D01*
X102979000Y-70206000D02*
X102979000Y-73634000D01*
X102939000Y-70270000D02*
X102939000Y-73570000D01*
X102899000Y-70339000D02*
X102899000Y-73501000D01*
X102859000Y-70411000D02*
X102859000Y-73429000D01*
X102819000Y-70488000D02*
X102819000Y-73352000D01*
X102779000Y-70570000D02*
X102779000Y-73270000D01*
X102739000Y-70658000D02*
X102739000Y-73182000D01*
X102699000Y-70755000D02*
X102699000Y-73085000D01*
X102659000Y-70861000D02*
X102659000Y-72979000D01*
X102619000Y-70980000D02*
X102619000Y-72860000D01*
X102579000Y-71118000D02*
X102579000Y-72722000D01*
X102539000Y-71287000D02*
X102539000Y-72553000D01*
X102499000Y-71518000D02*
X102499000Y-72322000D01*
X109010000Y-71920000D02*
G75*
G03*
X109010000Y-71920000I-3270000J0D01*
G01*
%TO.C,NE555*%
X129780000Y-72890000D02*
X124480000Y-72890000D01*
X129780000Y-62610000D02*
X129780000Y-72890000D01*
X128130000Y-62610000D02*
X129780000Y-62610000D01*
X124480000Y-72890000D02*
X124480000Y-62610000D01*
X124480000Y-62610000D02*
X126130000Y-62610000D01*
X126130000Y-62610000D02*
G75*
G03*
X128130000Y-62610000I1000000J0D01*
G01*
%TO.C,S1*%
X153809600Y-82447600D02*
X157746600Y-82473000D01*
X157746600Y-82447600D02*
X157746600Y-72490800D01*
X153809600Y-72490800D02*
X153809600Y-82447600D01*
X157746600Y-72490800D02*
X153809600Y-72490800D01*
%TO.C,R1*%
X131280000Y-48380000D02*
X130510000Y-48380000D01*
X130510000Y-49750000D02*
X123970000Y-49750000D01*
X130510000Y-47010000D02*
X130510000Y-49750000D01*
X123970000Y-49750000D02*
X123970000Y-47010000D01*
X123970000Y-47010000D02*
X130510000Y-47010000D01*
X123200000Y-48380000D02*
X123970000Y-48380000D01*
%TO.C,R2*%
X131390000Y-53550000D02*
X130620000Y-53550000D01*
X130620000Y-54920000D02*
X124080000Y-54920000D01*
X130620000Y-52180000D02*
X130620000Y-54920000D01*
X124080000Y-54920000D02*
X124080000Y-52180000D01*
X124080000Y-52180000D02*
X130620000Y-52180000D01*
X123310000Y-53550000D02*
X124080000Y-53550000D01*
%TO.C,R3*%
X131340000Y-58720000D02*
X130570000Y-58720000D01*
X130570000Y-60090000D02*
X124030000Y-60090000D01*
X130570000Y-57350000D02*
X130570000Y-60090000D01*
X124030000Y-60090000D02*
X124030000Y-57350000D01*
X124030000Y-57350000D02*
X130570000Y-57350000D01*
X123260000Y-58720000D02*
X124030000Y-58720000D01*
%TD*%
M02*
