%TF.GenerationSoftware,KiCad,Pcbnew,7.0.8*%
%TF.CreationDate,2024-05-08T14:15:31+02:00*%
%TF.ProjectId,PaperBot,50617065-7242-46f7-942e-6b696361645f,rev?*%
%TF.SameCoordinates,Original*%
%TF.FileFunction,Copper,L1,Top*%
%TF.FilePolarity,Positive*%
%FSLAX46Y46*%
G04 Gerber Fmt 4.6, Leading zero omitted, Abs format (unit mm)*
G04 Created by KiCad (PCBNEW 7.0.8) date 2024-05-08 14:15:31*
%MOMM*%
%LPD*%
G01*
G04 APERTURE LIST*
%TA.AperFunction,ComponentPad*%
%ADD10R,1.800000X1.800000*%
%TD*%
%TA.AperFunction,ComponentPad*%
%ADD11C,1.800000*%
%TD*%
%TA.AperFunction,ComponentPad*%
%ADD12R,1.600000X1.600000*%
%TD*%
%TA.AperFunction,ComponentPad*%
%ADD13C,1.600000*%
%TD*%
%TA.AperFunction,ComponentPad*%
%ADD14O,1.600000X1.600000*%
%TD*%
%TA.AperFunction,ComponentPad*%
%ADD15C,2.000000*%
%TD*%
%TA.AperFunction,Conductor*%
%ADD16C,0.250000*%
%TD*%
G04 APERTURE END LIST*
D10*
%TO.P,D2,1,K*%
%TO.N,Net-(D1-K)*%
X142880000Y-59870000D03*
D11*
%TO.P,D2,2,A*%
%TO.N,Net-(D1-A)*%
X145420000Y-59870000D03*
%TD*%
D10*
%TO.P,D1,1,K*%
%TO.N,Net-(D1-K)*%
X111680000Y-59830000D03*
D11*
%TO.P,D1,2,A*%
%TO.N,Net-(D1-A)*%
X114220000Y-59830000D03*
%TD*%
D12*
%TO.P,C1,1*%
%TO.N,Net-(U1-THR)*%
X106990000Y-71920000D03*
D13*
%TO.P,C1,2*%
%TO.N,Net-(D1-K)*%
X104490000Y-71920000D03*
%TD*%
D12*
%TO.P,NE555,1,GND*%
%TO.N,Net-(D1-K)*%
X130940000Y-63940000D03*
D14*
%TO.P,NE555,2,TR*%
%TO.N,Net-(U1-THR)*%
X130940000Y-66480000D03*
%TO.P,NE555,3,Q*%
%TO.N,Net-(U1-Q)*%
X130940000Y-69020000D03*
%TO.P,NE555,4,R*%
%TO.N,Net-(S1-E)*%
X130940000Y-71560000D03*
%TO.P,NE555,5,CV*%
%TO.N,unconnected-(U1-CV-Pad5)*%
X123320000Y-71560000D03*
%TO.P,NE555,6,THR*%
%TO.N,Net-(U1-THR)*%
X123320000Y-69020000D03*
%TO.P,NE555,7,DIS*%
%TO.N,Net-(U1-DIS)*%
X123320000Y-66480000D03*
%TO.P,NE555,8,VCC*%
%TO.N,Net-(S1-E)*%
X123320000Y-63940000D03*
%TD*%
D15*
%TO.P,S1,1,A*%
%TO.N,Net-(S1-A-Pad1)*%
X155740000Y-80060000D03*
%TO.P,S1,2,E*%
%TO.N,Net-(S1-E)*%
X155740000Y-77520000D03*
%TO.P,S1,3,A*%
%TO.N,unconnected-(S1-A-Pad3)*%
X155740000Y-74980000D03*
%TD*%
D13*
%TO.P,R1,1*%
%TO.N,Net-(U1-THR)*%
X132320000Y-48380000D03*
D14*
%TO.P,R1,2*%
%TO.N,Net-(U1-DIS)*%
X122160000Y-48380000D03*
%TD*%
D13*
%TO.P,R2,1*%
%TO.N,Net-(S1-E)*%
X132430000Y-53550000D03*
D14*
%TO.P,R2,2*%
%TO.N,Net-(U1-DIS)*%
X122270000Y-53550000D03*
%TD*%
D13*
%TO.P,R3,1*%
%TO.N,Net-(U1-Q)*%
X132380000Y-58720000D03*
D14*
%TO.P,R3,2*%
%TO.N,Net-(D1-A)*%
X122220000Y-58720000D03*
%TD*%
D16*
%TO.N,Net-(U1-THR)*%
X135150000Y-65410000D02*
X134080000Y-66480000D01*
X132320000Y-48380000D02*
X132320000Y-49240000D01*
X135150000Y-52070000D02*
X135150000Y-65410000D01*
X132320000Y-49240000D02*
X135150000Y-52070000D01*
X134080000Y-66480000D02*
X130940000Y-66480000D01*
%TO.N,Net-(U1-DIS)*%
X122270000Y-53550000D02*
X118950000Y-56870000D01*
X118950000Y-56870000D02*
X118950000Y-65190000D01*
X120240000Y-66480000D02*
X123320000Y-66480000D01*
X118950000Y-65190000D02*
X120240000Y-66480000D01*
%TO.N,Net-(S1-E)*%
X127750000Y-66440000D02*
X127750000Y-69960000D01*
X135810000Y-71560000D02*
X137390000Y-73140000D01*
X153400000Y-77520000D02*
X155740000Y-77520000D01*
X127750000Y-69960000D02*
X129350000Y-71560000D01*
X129350000Y-71560000D02*
X130940000Y-71560000D01*
X132430000Y-53550000D02*
X129700000Y-53550000D01*
X151850000Y-73140000D02*
X151850000Y-75970000D01*
X123320000Y-63940000D02*
X125250000Y-63940000D01*
X125250000Y-63940000D02*
X127750000Y-66440000D01*
X125250000Y-58000000D02*
X125250000Y-63940000D01*
X129700000Y-53550000D02*
X125250000Y-58000000D01*
X130940000Y-71560000D02*
X135810000Y-71560000D01*
X151850000Y-75970000D02*
X153400000Y-77520000D01*
X137390000Y-73140000D02*
X151850000Y-73140000D01*
%TO.N,Net-(U1-Q)*%
X132380000Y-58720000D02*
X130370000Y-58720000D01*
X128980000Y-69020000D02*
X130940000Y-69020000D01*
X130370000Y-58720000D02*
X128340000Y-60750000D01*
X128340000Y-68380000D02*
X128980000Y-69020000D01*
X128340000Y-60750000D02*
X128340000Y-68380000D01*
%TD*%
M02*
