M48
; DRILL file {KiCad 7.0.8} date Wed May  8 14:15:34 2024
; FORMAT={3:3/ absolute / metric / suppress leading zeros}
; #@! TF.CreationDate,2024-05-08T14:15:34+02:00
; #@! TF.GenerationSoftware,Kicad,Pcbnew,7.0.8
; #@! TF.FileFunction,MixedPlating,1,2
FMAT,2
METRIC,TZ
; #@! TA.AperFunction,Plated,PTH,ComponentDrill
T1C0.800
; #@! TA.AperFunction,Plated,PTH,ComponentDrill
T2C0.900
; #@! TA.AperFunction,Plated,PTH,ComponentDrill
T3C1.000
%
G90
G05
T1
X104490Y-71920
X106990Y-71920
X122160Y-48380
X122220Y-58720
X122270Y-53550
X123320Y-63940
X123320Y-66480
X123320Y-69020
X123320Y-71560
X130940Y-63940
X130940Y-66480
X130940Y-69020
X130940Y-71560
X132320Y-48380
X132380Y-58720
X132430Y-53550
T2
X111680Y-59830
X114220Y-59830
X142880Y-59870
X145420Y-59870
T3
X155740Y-74980
X155740Y-77520
X155740Y-80060
T0
M30
